<mxfile host="app.diagrams.net" agent="Mozilla/5.0 (Windows NT 10.0; Win64; x64) AppleWebKit/537.36 (KHTML, like Gecko) Chrome/138.0.0.0 Safari/537.36 Edg/138.0.0.0" version="28.2.5">
  <diagram name="第 1 页" id="5BtlQXgvriHQuw9evYZK">
    <mxGraphModel dx="533" dy="730" grid="1" gridSize="10" guides="1" tooltips="1" connect="1" arrows="1" fold="1" page="1" pageScale="1" pageWidth="827" pageHeight="1169" math="0" shadow="0">
      <root>
        <mxCell id="0" />
        <mxCell id="1" parent="0" />
        <mxCell id="Z-SN7MBsSyZbgGFgeS7H-33" value="" style="rounded=0;whiteSpace=wrap;html=1;dashed=1;dashPattern=8 8;" vertex="1" parent="1">
          <mxGeometry x="170" y="1060" width="470" height="290" as="geometry" />
        </mxCell>
        <mxCell id="Z-SN7MBsSyZbgGFgeS7H-58" value="" style="rounded=0;whiteSpace=wrap;html=1;dashed=1;dashPattern=8 8;" vertex="1" parent="1">
          <mxGeometry x="308" y="1060" width="172" height="290" as="geometry" />
        </mxCell>
        <mxCell id="UU_-enF2i6DZzuisgXym-22" value="" style="rounded=0;whiteSpace=wrap;html=1;dashed=1;dashPattern=8 8;" parent="1" vertex="1">
          <mxGeometry x="170" y="340" width="470" height="240" as="geometry" />
        </mxCell>
        <mxCell id="UU_-enF2i6DZzuisgXym-1" value="" style="rounded=0;whiteSpace=wrap;html=1;dashed=1;dashPattern=8 8;" parent="1" vertex="1">
          <mxGeometry x="170" y="90" width="470" height="240" as="geometry" />
        </mxCell>
        <mxCell id="UU_-enF2i6DZzuisgXym-2" value="" style="rounded=1;whiteSpace=wrap;html=1;" parent="1" vertex="1">
          <mxGeometry x="200" y="120" width="120" height="190" as="geometry" />
        </mxCell>
        <mxCell id="UU_-enF2i6DZzuisgXym-3" value="" style="rounded=1;whiteSpace=wrap;html=1;" parent="1" vertex="1">
          <mxGeometry x="500" y="120" width="120" height="190" as="geometry" />
        </mxCell>
        <mxCell id="UU_-enF2i6DZzuisgXym-4" value="栈内存" style="text;html=1;align=center;verticalAlign=middle;whiteSpace=wrap;rounded=0;" parent="1" vertex="1">
          <mxGeometry x="230" y="120" width="60" height="30" as="geometry" />
        </mxCell>
        <mxCell id="UU_-enF2i6DZzuisgXym-5" value="栈内存" style="text;html=1;align=center;verticalAlign=middle;whiteSpace=wrap;rounded=0;" parent="1" vertex="1">
          <mxGeometry x="530" y="120" width="60" height="30" as="geometry" />
        </mxCell>
        <mxCell id="UU_-enF2i6DZzuisgXym-7" value="" style="rounded=1;whiteSpace=wrap;html=1;" parent="1" vertex="1">
          <mxGeometry x="350" y="120" width="120" height="190" as="geometry" />
        </mxCell>
        <mxCell id="UU_-enF2i6DZzuisgXym-8" value="堆内存" style="text;html=1;align=center;verticalAlign=middle;whiteSpace=wrap;rounded=0;" parent="1" vertex="1">
          <mxGeometry x="380" y="120" width="60" height="30" as="geometry" />
        </mxCell>
        <mxCell id="UU_-enF2i6DZzuisgXym-9" value="线程1（T1）" style="text;html=1;align=center;verticalAlign=middle;whiteSpace=wrap;rounded=0;" parent="1" vertex="1">
          <mxGeometry x="230" y="270" width="60" height="30" as="geometry" />
        </mxCell>
        <mxCell id="UU_-enF2i6DZzuisgXym-10" value="线程2（T2）" style="text;html=1;align=center;verticalAlign=middle;whiteSpace=wrap;rounded=0;" parent="1" vertex="1">
          <mxGeometry x="530" y="270" width="60" height="30" as="geometry" />
        </mxCell>
        <mxCell id="UU_-enF2i6DZzuisgXym-11" value="" style="rounded=0;whiteSpace=wrap;html=1;" parent="1" vertex="1">
          <mxGeometry x="385" y="150" width="10" height="40" as="geometry" />
        </mxCell>
        <mxCell id="UU_-enF2i6DZzuisgXym-12" value="" style="rounded=0;whiteSpace=wrap;html=1;" parent="1" vertex="1">
          <mxGeometry x="405" y="150" width="10" height="40" as="geometry" />
        </mxCell>
        <mxCell id="UU_-enF2i6DZzuisgXym-14" value="" style="endArrow=classic;html=1;rounded=0;fontSize=12;startSize=8;endSize=8;curved=1;exitX=1;exitY=0.5;exitDx=0;exitDy=0;" parent="1" source="UU_-enF2i6DZzuisgXym-2" target="UU_-enF2i6DZzuisgXym-7" edge="1">
          <mxGeometry width="50" height="50" relative="1" as="geometry">
            <mxPoint x="430" y="280" as="sourcePoint" />
            <mxPoint x="480" y="230" as="targetPoint" />
          </mxGeometry>
        </mxCell>
        <mxCell id="UU_-enF2i6DZzuisgXym-15" value="" style="endArrow=classic;html=1;rounded=0;fontSize=12;startSize=8;endSize=8;curved=1;exitX=1;exitY=0.5;exitDx=0;exitDy=0;" parent="1" edge="1">
          <mxGeometry width="50" height="50" relative="1" as="geometry">
            <mxPoint x="500" y="215" as="sourcePoint" />
            <mxPoint x="470" y="215" as="targetPoint" />
          </mxGeometry>
        </mxCell>
        <mxCell id="UU_-enF2i6DZzuisgXym-16" value="" style="shape=cylinder3;whiteSpace=wrap;html=1;boundedLbl=1;backgroundOutline=1;size=15;rotation=90;" parent="1" vertex="1">
          <mxGeometry x="390" y="160" width="40" height="110" as="geometry" />
        </mxCell>
        <mxCell id="UU_-enF2i6DZzuisgXym-17" value="" style="rounded=0;whiteSpace=wrap;html=1;" parent="1" vertex="1">
          <mxGeometry x="420" y="200" width="10" height="30" as="geometry" />
        </mxCell>
        <mxCell id="UU_-enF2i6DZzuisgXym-18" value="" style="rounded=0;whiteSpace=wrap;html=1;" parent="1" vertex="1">
          <mxGeometry x="400" y="200" width="10" height="30" as="geometry" />
        </mxCell>
        <mxCell id="UU_-enF2i6DZzuisgXym-19" value="" style="rounded=0;whiteSpace=wrap;html=1;" parent="1" vertex="1">
          <mxGeometry x="380" y="200" width="10" height="30" as="geometry" />
        </mxCell>
        <mxCell id="UU_-enF2i6DZzuisgXym-20" value="数据队列&lt;div&gt;阻塞队列BlockingQueue&lt;/div&gt;&lt;div&gt;双端队列Deque&lt;/div&gt;" style="text;html=1;align=center;verticalAlign=middle;whiteSpace=wrap;rounded=0;" parent="1" vertex="1">
          <mxGeometry x="330" y="260" width="150" height="30" as="geometry" />
        </mxCell>
        <mxCell id="UU_-enF2i6DZzuisgXym-21" value="线程间数据交互" style="text;html=1;align=center;verticalAlign=middle;whiteSpace=wrap;rounded=0;" parent="1" vertex="1">
          <mxGeometry x="348" y="90" width="132" height="30" as="geometry" />
        </mxCell>
        <mxCell id="UU_-enF2i6DZzuisgXym-25" value="" style="rounded=1;whiteSpace=wrap;html=1;" parent="1" vertex="1">
          <mxGeometry x="200" y="360" width="120" height="190" as="geometry" />
        </mxCell>
        <mxCell id="UU_-enF2i6DZzuisgXym-23" value="JVM" style="text;html=1;align=center;verticalAlign=middle;whiteSpace=wrap;rounded=0;" parent="1" vertex="1">
          <mxGeometry x="230" y="360" width="60" height="30" as="geometry" />
        </mxCell>
        <mxCell id="UU_-enF2i6DZzuisgXym-24" value="进程1（P1）" style="text;html=1;align=center;verticalAlign=middle;whiteSpace=wrap;rounded=0;" parent="1" vertex="1">
          <mxGeometry x="230" y="510" width="60" height="30" as="geometry" />
        </mxCell>
        <mxCell id="UU_-enF2i6DZzuisgXym-27" value="" style="rounded=1;whiteSpace=wrap;html=1;" parent="1" vertex="1">
          <mxGeometry x="500" y="360" width="120" height="190" as="geometry" />
        </mxCell>
        <mxCell id="UU_-enF2i6DZzuisgXym-29" value="JVM" style="text;html=1;align=center;verticalAlign=middle;whiteSpace=wrap;rounded=0;" parent="1" vertex="1">
          <mxGeometry x="530" y="360" width="60" height="30" as="geometry" />
        </mxCell>
        <mxCell id="UU_-enF2i6DZzuisgXym-30" value="进程2（P2）" style="text;html=1;align=center;verticalAlign=middle;whiteSpace=wrap;rounded=0;" parent="1" vertex="1">
          <mxGeometry x="530" y="510" width="60" height="30" as="geometry" />
        </mxCell>
        <mxCell id="UU_-enF2i6DZzuisgXym-31" value="ServerSocket" style="rounded=1;whiteSpace=wrap;html=1;" parent="1" vertex="1">
          <mxGeometry x="200" y="390" width="120" height="60" as="geometry" />
        </mxCell>
        <mxCell id="UU_-enF2i6DZzuisgXym-32" value="Socket" style="rounded=1;whiteSpace=wrap;html=1;" parent="1" vertex="1">
          <mxGeometry x="500" y="390" width="120" height="60" as="geometry" />
        </mxCell>
        <mxCell id="UU_-enF2i6DZzuisgXym-33" value="" style="endArrow=classic;startArrow=classic;html=1;rounded=0;fontSize=12;startSize=8;endSize=8;curved=1;exitX=1;exitY=0.5;exitDx=0;exitDy=0;" parent="1" source="UU_-enF2i6DZzuisgXym-13" target="UU_-enF2i6DZzuisgXym-32" edge="1">
          <mxGeometry width="50" height="50" relative="1" as="geometry">
            <mxPoint x="370" y="440" as="sourcePoint" />
            <mxPoint x="420" y="390" as="targetPoint" />
          </mxGeometry>
        </mxCell>
        <mxCell id="UU_-enF2i6DZzuisgXym-34" value="" style="endArrow=classic;startArrow=classic;html=1;rounded=0;fontSize=12;startSize=8;endSize=8;curved=1;exitX=1;exitY=0.5;exitDx=0;exitDy=0;" parent="1" source="UU_-enF2i6DZzuisgXym-31" target="UU_-enF2i6DZzuisgXym-13" edge="1">
          <mxGeometry width="50" height="50" relative="1" as="geometry">
            <mxPoint x="320" y="420" as="sourcePoint" />
            <mxPoint x="500" y="420" as="targetPoint" />
          </mxGeometry>
        </mxCell>
        <mxCell id="UU_-enF2i6DZzuisgXym-13" value="" style="rounded=0;whiteSpace=wrap;html=1;" parent="1" vertex="1">
          <mxGeometry x="405" y="400" width="10" height="40" as="geometry" />
        </mxCell>
        <mxCell id="UU_-enF2i6DZzuisgXym-35" value="进程间数据交互" style="text;html=1;align=center;verticalAlign=middle;whiteSpace=wrap;rounded=0;" parent="1" vertex="1">
          <mxGeometry x="348" y="340" width="132" height="30" as="geometry" />
        </mxCell>
        <mxCell id="-UnYtMslYaIjnJXysXKQ-1" value="" style="rounded=0;whiteSpace=wrap;html=1;dashed=1;dashPattern=8 8;" parent="1" vertex="1">
          <mxGeometry x="170" y="590" width="470" height="180" as="geometry" />
        </mxCell>
        <mxCell id="-UnYtMslYaIjnJXysXKQ-2" value="进程1（P1）&lt;div&gt;&lt;br&gt;&lt;div&gt;Producer&lt;/div&gt;&lt;/div&gt;" style="rounded=1;whiteSpace=wrap;html=1;" parent="1" vertex="1">
          <mxGeometry x="200" y="615" width="90" height="120" as="geometry" />
        </mxCell>
        <mxCell id="-UnYtMslYaIjnJXysXKQ-5" value="进程2（P2）&lt;div&gt;&lt;br&gt;&lt;/div&gt;&lt;div&gt;Consumer&lt;/div&gt;" style="rounded=1;whiteSpace=wrap;html=1;" parent="1" vertex="1">
          <mxGeometry x="500" y="640" width="120" height="70" as="geometry" />
        </mxCell>
        <mxCell id="-UnYtMslYaIjnJXysXKQ-10" value="" style="endArrow=classic;startArrow=classic;html=1;rounded=0;fontSize=12;startSize=8;endSize=8;curved=1;exitX=1;exitY=0.5;exitDx=0;exitDy=0;entryX=0;entryY=0.5;entryDx=0;entryDy=0;" parent="1" source="-UnYtMslYaIjnJXysXKQ-15" target="-UnYtMslYaIjnJXysXKQ-5" edge="1">
          <mxGeometry width="50" height="50" relative="1" as="geometry">
            <mxPoint x="370" y="690" as="sourcePoint" />
            <mxPoint x="500" y="670" as="targetPoint" />
          </mxGeometry>
        </mxCell>
        <mxCell id="-UnYtMslYaIjnJXysXKQ-16" value="" style="endArrow=classic;startArrow=classic;html=1;rounded=0;fontSize=12;startSize=8;endSize=8;curved=1;exitX=1;exitY=0.5;exitDx=0;exitDy=0;" parent="1" source="-UnYtMslYaIjnJXysXKQ-2" target="-UnYtMslYaIjnJXysXKQ-15" edge="1">
          <mxGeometry width="50" height="50" relative="1" as="geometry">
            <mxPoint x="360" y="700" as="sourcePoint" />
            <mxPoint x="500" y="670" as="targetPoint" />
          </mxGeometry>
        </mxCell>
        <mxCell id="-UnYtMslYaIjnJXysXKQ-15" value="&lt;div&gt;&lt;div&gt;&lt;b&gt;消息中间件&lt;/b&gt;&lt;/div&gt;&lt;/div&gt;&lt;div&gt;&lt;b&gt;JMS Provider&lt;/b&gt;&lt;/div&gt;&lt;div&gt;&lt;br&gt;&lt;/div&gt;&lt;div&gt;&lt;b&gt;&lt;br&gt;&lt;/b&gt;&lt;/div&gt;&lt;div&gt;&lt;b&gt;&lt;br&gt;&lt;/b&gt;&lt;/div&gt;&lt;div&gt;&lt;b&gt;&lt;br&gt;&lt;/b&gt;&lt;/div&gt;&lt;div&gt;&lt;b&gt;&lt;br&gt;&lt;/b&gt;&lt;/div&gt;" style="rounded=0;whiteSpace=wrap;html=1;" parent="1" vertex="1">
          <mxGeometry x="350" y="617.5" width="120" height="115" as="geometry" />
        </mxCell>
        <mxCell id="-UnYtMslYaIjnJXysXKQ-21" value="message" style="text;html=1;align=center;verticalAlign=middle;whiteSpace=wrap;rounded=0;" parent="1" vertex="1">
          <mxGeometry x="290" y="670" width="60" height="30" as="geometry" />
        </mxCell>
        <mxCell id="-UnYtMslYaIjnJXysXKQ-22" value="message" style="rounded=1;whiteSpace=wrap;html=1;" parent="1" vertex="1">
          <mxGeometry x="361" y="670" width="105" height="25" as="geometry" />
        </mxCell>
        <mxCell id="-UnYtMslYaIjnJXysXKQ-23" value="消息头" style="rounded=0;whiteSpace=wrap;html=1;" parent="1" vertex="1">
          <mxGeometry x="340" y="740" width="70" height="20" as="geometry" />
        </mxCell>
        <mxCell id="-UnYtMslYaIjnJXysXKQ-24" value="消息属性" style="rounded=0;whiteSpace=wrap;html=1;" parent="1" vertex="1">
          <mxGeometry x="410" y="740" width="70" height="20" as="geometry" />
        </mxCell>
        <mxCell id="-UnYtMslYaIjnJXysXKQ-25" value="消息主体内容" style="rounded=0;whiteSpace=wrap;html=1;" parent="1" vertex="1">
          <mxGeometry x="480" y="740" width="80" height="20" as="geometry" />
        </mxCell>
        <mxCell id="-UnYtMslYaIjnJXysXKQ-26" value="" style="endArrow=classic;html=1;rounded=0;dashed=1;entryX=0;entryY=0.5;entryDx=0;entryDy=0;" parent="1" source="-UnYtMslYaIjnJXysXKQ-22" target="-UnYtMslYaIjnJXysXKQ-24" edge="1">
          <mxGeometry width="50" height="50" relative="1" as="geometry">
            <mxPoint x="400" y="810" as="sourcePoint" />
            <mxPoint x="410" y="808" as="targetPoint" />
          </mxGeometry>
        </mxCell>
        <mxCell id="-UnYtMslYaIjnJXysXKQ-27" value="Java Message Service(JMS)" style="text;html=1;align=center;verticalAlign=middle;whiteSpace=wrap;rounded=0;" parent="1" vertex="1">
          <mxGeometry x="308" y="590" width="212" height="30" as="geometry" />
        </mxCell>
        <mxCell id="Z-SN7MBsSyZbgGFgeS7H-1" value="" style="rounded=0;whiteSpace=wrap;html=1;dashed=1;dashPattern=8 8;" vertex="1" parent="1">
          <mxGeometry x="170" y="810" width="470" height="150" as="geometry" />
        </mxCell>
        <mxCell id="Z-SN7MBsSyZbgGFgeS7H-4" value="" style="endArrow=classic;startArrow=classic;html=1;rounded=0;fontSize=12;startSize=8;endSize=8;curved=1;exitX=1;exitY=0.5;exitDx=0;exitDy=0;entryX=0;entryY=0.5;entryDx=0;entryDy=0;" edge="1" source="Z-SN7MBsSyZbgGFgeS7H-6" target="Z-SN7MBsSyZbgGFgeS7H-3" parent="1">
          <mxGeometry width="50" height="50" relative="1" as="geometry">
            <mxPoint x="360" y="910" as="sourcePoint" />
            <mxPoint x="490" y="895" as="targetPoint" />
          </mxGeometry>
        </mxCell>
        <mxCell id="Z-SN7MBsSyZbgGFgeS7H-5" value="" style="endArrow=classic;startArrow=classic;html=1;rounded=0;fontSize=12;startSize=8;endSize=8;curved=1;exitX=1;exitY=0.5;exitDx=0;exitDy=0;" edge="1" source="Z-SN7MBsSyZbgGFgeS7H-2" target="Z-SN7MBsSyZbgGFgeS7H-6" parent="1">
          <mxGeometry width="50" height="50" relative="1" as="geometry">
            <mxPoint x="360" y="920" as="sourcePoint" />
            <mxPoint x="500" y="890" as="targetPoint" />
          </mxGeometry>
        </mxCell>
        <mxCell id="Z-SN7MBsSyZbgGFgeS7H-6" value="&lt;div&gt;&lt;div&gt;&lt;b&gt;Kafka Broker&lt;/b&gt;&lt;/div&gt;&lt;/div&gt;&lt;div&gt;&lt;b&gt;&lt;br&gt;&lt;/b&gt;&lt;/div&gt;&lt;div&gt;&lt;b&gt;&lt;br&gt;&lt;/b&gt;&lt;/div&gt;&lt;div&gt;&lt;b&gt;&lt;br&gt;&lt;/b&gt;&lt;/div&gt;&lt;div&gt;&lt;b&gt;&lt;br&gt;&lt;/b&gt;&lt;/div&gt;&lt;div&gt;&lt;b&gt;&lt;br&gt;&lt;/b&gt;&lt;/div&gt;&lt;div&gt;&lt;b&gt;&lt;br&gt;&lt;/b&gt;&lt;/div&gt;" style="rounded=0;whiteSpace=wrap;html=1;" vertex="1" parent="1">
          <mxGeometry x="340" y="837.5" width="120" height="115" as="geometry" />
        </mxCell>
        <mxCell id="Z-SN7MBsSyZbgGFgeS7H-7" value="record" style="text;html=1;align=center;verticalAlign=middle;whiteSpace=wrap;rounded=0;" vertex="1" parent="1">
          <mxGeometry x="290" y="890" width="60" height="30" as="geometry" />
        </mxCell>
        <mxCell id="Z-SN7MBsSyZbgGFgeS7H-8" value="Topic&lt;br&gt;&lt;div&gt;&lt;br&gt;&lt;/div&gt;&lt;div&gt;&lt;br&gt;&lt;/div&gt;&lt;div&gt;&lt;br&gt;&lt;/div&gt;&lt;div&gt;&lt;br&gt;&lt;/div&gt;" style="rounded=1;whiteSpace=wrap;html=1;" vertex="1" parent="1">
          <mxGeometry x="351" y="860" width="105" height="90" as="geometry" />
        </mxCell>
        <mxCell id="Z-SN7MBsSyZbgGFgeS7H-13" value="Kafka" style="text;html=1;align=center;verticalAlign=middle;whiteSpace=wrap;rounded=0;" vertex="1" parent="1">
          <mxGeometry x="308" y="810" width="212" height="30" as="geometry" />
        </mxCell>
        <mxCell id="Z-SN7MBsSyZbgGFgeS7H-22" value="" style="shape=cylinder3;whiteSpace=wrap;html=1;boundedLbl=1;backgroundOutline=1;size=15;rotation=90;" vertex="1" parent="1">
          <mxGeometry x="385" y="865" width="40" height="100" as="geometry" />
        </mxCell>
        <mxCell id="Z-SN7MBsSyZbgGFgeS7H-19" value="2" style="rounded=0;whiteSpace=wrap;html=1;" vertex="1" parent="1">
          <mxGeometry x="370" y="900" width="10" height="30" as="geometry" />
        </mxCell>
        <mxCell id="Z-SN7MBsSyZbgGFgeS7H-20" value="0" style="rounded=0;whiteSpace=wrap;html=1;" vertex="1" parent="1">
          <mxGeometry x="410" y="900" width="10" height="30" as="geometry" />
        </mxCell>
        <mxCell id="Z-SN7MBsSyZbgGFgeS7H-23" value="App" style="rounded=1;whiteSpace=wrap;html=1;" vertex="1" parent="1">
          <mxGeometry x="175" y="850" width="65" height="90" as="geometry" />
        </mxCell>
        <mxCell id="Z-SN7MBsSyZbgGFgeS7H-21" value="1" style="rounded=0;whiteSpace=wrap;html=1;" vertex="1" parent="1">
          <mxGeometry x="390" y="900" width="10" height="30" as="geometry" />
        </mxCell>
        <mxCell id="Z-SN7MBsSyZbgGFgeS7H-24" value="App" style="rounded=1;whiteSpace=wrap;html=1;" vertex="1" parent="1">
          <mxGeometry x="550" y="855" width="65" height="80" as="geometry" />
        </mxCell>
        <mxCell id="Z-SN7MBsSyZbgGFgeS7H-3" value="&lt;div&gt;Kafka&lt;/div&gt;&lt;div&gt;Consumer&lt;/div&gt;" style="rounded=1;whiteSpace=wrap;html=1;" vertex="1" parent="1">
          <mxGeometry x="500" y="840" width="70" height="110" as="geometry" />
        </mxCell>
        <mxCell id="Z-SN7MBsSyZbgGFgeS7H-2" value="&lt;div&gt;Kafka&lt;br&gt;&lt;div&gt;Producer&lt;/div&gt;&lt;/div&gt;" style="rounded=1;whiteSpace=wrap;html=1;" vertex="1" parent="1">
          <mxGeometry x="220" y="840" width="70" height="110" as="geometry" />
        </mxCell>
        <mxCell id="Z-SN7MBsSyZbgGFgeS7H-25" value="0" style="rounded=0;whiteSpace=wrap;html=1;" vertex="1" parent="1">
          <mxGeometry x="475" y="880" width="10" height="30" as="geometry" />
        </mxCell>
        <mxCell id="Z-SN7MBsSyZbgGFgeS7H-26" value="" style="verticalLabelPosition=bottom;html=1;verticalAlign=top;align=center;strokeColor=none;fillColor=#00BEF2;shape=mxgraph.azure.file_2;pointerEvents=1;" vertex="1" parent="1">
          <mxGeometry x="392.5" y="970" width="28.5" height="30" as="geometry" />
        </mxCell>
        <mxCell id="Z-SN7MBsSyZbgGFgeS7H-27" value="" style="endArrow=classic;startArrow=classic;html=1;rounded=0;fontSize=12;startSize=8;endSize=8;curved=1;exitX=1;exitY=0.5;exitDx=0;exitDy=0;entryX=0.5;entryY=0;entryDx=0;entryDy=0;exitPerimeter=0;entryPerimeter=0;" edge="1" parent="1" source="Z-SN7MBsSyZbgGFgeS7H-22" target="Z-SN7MBsSyZbgGFgeS7H-26">
          <mxGeometry width="50" height="50" relative="1" as="geometry">
            <mxPoint x="445" y="1000" as="sourcePoint" />
            <mxPoint x="485" y="1000" as="targetPoint" />
          </mxGeometry>
        </mxCell>
        <mxCell id="Z-SN7MBsSyZbgGFgeS7H-28" value=".log" style="text;html=1;align=center;verticalAlign=middle;resizable=0;points=[];autosize=1;strokeColor=none;fillColor=none;" vertex="1" parent="1">
          <mxGeometry x="410" y="970" width="40" height="30" as="geometry" />
        </mxCell>
        <mxCell id="Z-SN7MBsSyZbgGFgeS7H-29" value="偏移量&lt;br&gt;offset" style="text;html=1;align=center;verticalAlign=middle;resizable=0;points=[];autosize=1;strokeColor=none;fillColor=none;" vertex="1" parent="1">
          <mxGeometry x="450" y="910" width="60" height="40" as="geometry" />
        </mxCell>
        <mxCell id="Z-SN7MBsSyZbgGFgeS7H-31" value="" style="endArrow=classic;startArrow=classic;html=1;rounded=0;fontSize=12;startSize=8;endSize=8;curved=1;exitX=1;exitY=0.5;exitDx=0;exitDy=0;" edge="1" parent="1">
          <mxGeometry width="50" height="50" relative="1" as="geometry">
            <mxPoint x="288" y="1214.66" as="sourcePoint" />
            <mxPoint x="330" y="1214.66" as="targetPoint" />
          </mxGeometry>
        </mxCell>
        <mxCell id="Z-SN7MBsSyZbgGFgeS7H-34" value="&lt;div&gt;&lt;div&gt;&lt;b&gt;Kafka Broker&lt;/b&gt;&lt;/div&gt;&lt;/div&gt;&lt;div&gt;&lt;b&gt;&lt;br&gt;&lt;/b&gt;&lt;/div&gt;&lt;div&gt;&lt;b&gt;&lt;br&gt;&lt;/b&gt;&lt;/div&gt;&lt;div&gt;&lt;b&gt;&lt;br&gt;&lt;/b&gt;&lt;/div&gt;&lt;div&gt;&lt;b&gt;&lt;br&gt;&lt;/b&gt;&lt;/div&gt;&lt;div&gt;&lt;b&gt;&lt;br&gt;&lt;/b&gt;&lt;/div&gt;&lt;div&gt;&lt;b&gt;&lt;br&gt;&lt;/b&gt;&lt;/div&gt;" style="rounded=0;whiteSpace=wrap;html=1;" vertex="1" parent="1">
          <mxGeometry x="340" y="1070" width="120" height="102.5" as="geometry" />
        </mxCell>
        <mxCell id="Z-SN7MBsSyZbgGFgeS7H-35" value="record" style="text;html=1;align=center;verticalAlign=middle;whiteSpace=wrap;rounded=0;" vertex="1" parent="1">
          <mxGeometry x="280" y="1220" width="60" height="30" as="geometry" />
        </mxCell>
        <mxCell id="Z-SN7MBsSyZbgGFgeS7H-36" value="Topic&lt;br&gt;&lt;div&gt;&lt;br&gt;&lt;/div&gt;&lt;div&gt;&lt;br&gt;&lt;/div&gt;&lt;div&gt;&lt;br&gt;&lt;/div&gt;&lt;div&gt;&lt;br&gt;&lt;/div&gt;" style="rounded=1;whiteSpace=wrap;html=1;" vertex="1" parent="1">
          <mxGeometry x="351" y="1092.5" width="105" height="70" as="geometry" />
        </mxCell>
        <mxCell id="Z-SN7MBsSyZbgGFgeS7H-38" value="" style="shape=cylinder3;whiteSpace=wrap;html=1;boundedLbl=1;backgroundOutline=1;size=15;rotation=90;" vertex="1" parent="1">
          <mxGeometry x="385" y="1082.5" width="40" height="100" as="geometry" />
        </mxCell>
        <mxCell id="Z-SN7MBsSyZbgGFgeS7H-40" value="0" style="rounded=0;whiteSpace=wrap;html=1;" vertex="1" parent="1">
          <mxGeometry x="410" y="1117.5" width="10" height="30" as="geometry" />
        </mxCell>
        <mxCell id="Z-SN7MBsSyZbgGFgeS7H-41" value="App" style="rounded=1;whiteSpace=wrap;html=1;" vertex="1" parent="1">
          <mxGeometry x="175" y="1170" width="65" height="90" as="geometry" />
        </mxCell>
        <mxCell id="Z-SN7MBsSyZbgGFgeS7H-43" value="App" style="rounded=1;whiteSpace=wrap;html=1;" vertex="1" parent="1">
          <mxGeometry x="560" y="1175" width="65" height="80" as="geometry" />
        </mxCell>
        <mxCell id="Z-SN7MBsSyZbgGFgeS7H-44" value="&lt;div&gt;Kafka&lt;/div&gt;&lt;div&gt;Consumer&lt;/div&gt;" style="rounded=1;whiteSpace=wrap;html=1;" vertex="1" parent="1">
          <mxGeometry x="510" y="1160" width="70" height="110" as="geometry" />
        </mxCell>
        <mxCell id="Z-SN7MBsSyZbgGFgeS7H-45" value="&lt;div&gt;Kafka&lt;br&gt;&lt;div&gt;Producer&lt;/div&gt;&lt;/div&gt;" style="rounded=1;whiteSpace=wrap;html=1;" vertex="1" parent="1">
          <mxGeometry x="220" y="1160" width="70" height="110" as="geometry" />
        </mxCell>
        <mxCell id="Z-SN7MBsSyZbgGFgeS7H-47" value="" style="verticalLabelPosition=bottom;html=1;verticalAlign=top;align=center;strokeColor=none;fillColor=#33FF33;shape=mxgraph.azure.file_2;pointerEvents=1;" vertex="1" parent="1">
          <mxGeometry x="370" y="1182.5" width="19" height="20" as="geometry" />
        </mxCell>
        <mxCell id="Z-SN7MBsSyZbgGFgeS7H-51" value="&lt;div&gt;&lt;div&gt;&lt;b&gt;Kafka Broker&lt;/b&gt;&lt;/div&gt;&lt;/div&gt;&lt;div&gt;&lt;b&gt;&lt;br&gt;&lt;/b&gt;&lt;/div&gt;&lt;div&gt;&lt;b&gt;&lt;br&gt;&lt;/b&gt;&lt;/div&gt;&lt;div&gt;&lt;b&gt;&lt;br&gt;&lt;/b&gt;&lt;/div&gt;&lt;div&gt;&lt;b&gt;&lt;br&gt;&lt;/b&gt;&lt;/div&gt;&lt;div&gt;&lt;b&gt;&lt;br&gt;&lt;/b&gt;&lt;/div&gt;&lt;div&gt;&lt;b&gt;&lt;br&gt;&lt;/b&gt;&lt;/div&gt;" style="rounded=0;whiteSpace=wrap;html=1;" vertex="1" parent="1">
          <mxGeometry x="340" y="1212.5" width="120" height="102.5" as="geometry" />
        </mxCell>
        <mxCell id="Z-SN7MBsSyZbgGFgeS7H-52" value="Topic&lt;br&gt;&lt;div&gt;&lt;br&gt;&lt;/div&gt;&lt;div&gt;&lt;br&gt;&lt;/div&gt;&lt;div&gt;&lt;br&gt;&lt;/div&gt;&lt;div&gt;&lt;br&gt;&lt;/div&gt;" style="rounded=1;whiteSpace=wrap;html=1;" vertex="1" parent="1">
          <mxGeometry x="351" y="1235" width="105" height="70" as="geometry" />
        </mxCell>
        <mxCell id="Z-SN7MBsSyZbgGFgeS7H-53" value="" style="shape=cylinder3;whiteSpace=wrap;html=1;boundedLbl=1;backgroundOutline=1;size=15;rotation=90;" vertex="1" parent="1">
          <mxGeometry x="385" y="1225" width="40" height="100" as="geometry" />
        </mxCell>
        <mxCell id="Z-SN7MBsSyZbgGFgeS7H-56" value="1" style="rounded=0;whiteSpace=wrap;html=1;" vertex="1" parent="1">
          <mxGeometry x="410" y="1260" width="10" height="30" as="geometry" />
        </mxCell>
        <mxCell id="Z-SN7MBsSyZbgGFgeS7H-59" value="" style="endArrow=classic;startArrow=classic;html=1;rounded=0;fontSize=12;startSize=8;endSize=8;curved=1;exitX=1;exitY=0.5;exitDx=0;exitDy=0;" edge="1" parent="1">
          <mxGeometry width="50" height="50" relative="1" as="geometry">
            <mxPoint x="470" y="1214.66" as="sourcePoint" />
            <mxPoint x="512" y="1214.66" as="targetPoint" />
          </mxGeometry>
        </mxCell>
        <mxCell id="Z-SN7MBsSyZbgGFgeS7H-60" value="" style="verticalLabelPosition=bottom;html=1;verticalAlign=top;align=center;strokeColor=none;fillColor=#00BEF2;shape=mxgraph.azure.file_2;pointerEvents=1;" vertex="1" parent="1">
          <mxGeometry x="410" y="1182.5" width="19" height="20" as="geometry" />
        </mxCell>
        <mxCell id="Z-SN7MBsSyZbgGFgeS7H-61" value="&lt;span style=&quot;font-size: 10px; text-wrap-mode: wrap;&quot;&gt;partition-0&lt;/span&gt;" style="text;html=1;align=center;verticalAlign=middle;resizable=0;points=[];autosize=1;strokeColor=none;fillColor=none;spacing=0;" vertex="1" parent="1">
          <mxGeometry x="350" y="1122.5" width="60" height="20" as="geometry" />
        </mxCell>
        <mxCell id="Z-SN7MBsSyZbgGFgeS7H-64" value="&lt;span style=&quot;font-size: 10px; text-wrap-mode: wrap;&quot;&gt;partition-1&lt;/span&gt;" style="text;html=1;align=center;verticalAlign=middle;resizable=0;points=[];autosize=1;strokeColor=none;fillColor=none;spacing=0;" vertex="1" parent="1">
          <mxGeometry x="350" y="1265" width="60" height="20" as="geometry" />
        </mxCell>
        <mxCell id="Z-SN7MBsSyZbgGFgeS7H-65" value="" style="verticalLabelPosition=bottom;html=1;verticalAlign=top;align=center;strokeColor=none;fillColor=#33FF33;shape=mxgraph.azure.file_2;pointerEvents=1;" vertex="1" parent="1">
          <mxGeometry x="370" y="1320" width="19" height="20" as="geometry" />
        </mxCell>
        <mxCell id="Z-SN7MBsSyZbgGFgeS7H-66" value="" style="verticalLabelPosition=bottom;html=1;verticalAlign=top;align=center;strokeColor=none;fillColor=#00BEF2;shape=mxgraph.azure.file_2;pointerEvents=1;" vertex="1" parent="1">
          <mxGeometry x="410" y="1320" width="19" height="20" as="geometry" />
        </mxCell>
        <mxCell id="Z-SN7MBsSyZbgGFgeS7H-32" value="" style="endArrow=classic;startArrow=none;html=1;rounded=0;fontSize=12;startSize=8;endSize=8;curved=1;exitX=1;exitY=0.5;exitDx=0;exitDy=0;entryX=0.5;entryY=0;entryDx=0;entryDy=0;exitPerimeter=0;entryPerimeter=0;startFill=0;" edge="1" source="Z-SN7MBsSyZbgGFgeS7H-38" target="Z-SN7MBsSyZbgGFgeS7H-47" parent="1">
          <mxGeometry width="50" height="50" relative="1" as="geometry">
            <mxPoint x="445" y="1232.5" as="sourcePoint" />
            <mxPoint x="485" y="1232.5" as="targetPoint" />
          </mxGeometry>
        </mxCell>
        <mxCell id="Z-SN7MBsSyZbgGFgeS7H-68" value="" style="endArrow=classic;startArrow=none;html=1;rounded=0;fontSize=12;startSize=8;endSize=8;curved=1;exitX=1;exitY=0.5;exitDx=0;exitDy=0;entryX=0.5;entryY=0;entryDx=0;entryDy=0;exitPerimeter=0;entryPerimeter=0;startFill=0;" edge="1" parent="1" source="Z-SN7MBsSyZbgGFgeS7H-53" target="Z-SN7MBsSyZbgGFgeS7H-66">
          <mxGeometry width="50" height="50" relative="1" as="geometry">
            <mxPoint x="436.5" y="1360" as="sourcePoint" />
            <mxPoint x="392.5" y="1390" as="targetPoint" />
          </mxGeometry>
        </mxCell>
        <mxCell id="Z-SN7MBsSyZbgGFgeS7H-69" value="" style="endArrow=classic;startArrow=none;html=1;rounded=0;fontSize=12;startSize=8;endSize=8;curved=1;exitX=0;exitY=0.5;exitDx=0;exitDy=0;entryX=0;entryY=0.5;entryDx=0;entryDy=0;exitPerimeter=0;entryPerimeter=0;startFill=0;" edge="1" parent="1" source="Z-SN7MBsSyZbgGFgeS7H-47" target="Z-SN7MBsSyZbgGFgeS7H-65">
          <mxGeometry width="50" height="50" relative="1" as="geometry">
            <mxPoint x="376" y="1370" as="sourcePoint" />
            <mxPoint x="351" y="1400" as="targetPoint" />
            <Array as="points">
              <mxPoint x="340" y="1180" />
              <mxPoint x="320" y="1280" />
              <mxPoint x="350" y="1350" />
            </Array>
          </mxGeometry>
        </mxCell>
        <mxCell id="Z-SN7MBsSyZbgGFgeS7H-71" value="" style="endArrow=classic;startArrow=none;html=1;rounded=0;fontSize=12;startSize=8;endSize=8;curved=1;exitX=1;exitY=0.5;exitDx=0;exitDy=0;entryX=1;entryY=0.5;entryDx=0;entryDy=0;exitPerimeter=0;entryPerimeter=0;startFill=0;" edge="1" parent="1" source="Z-SN7MBsSyZbgGFgeS7H-66" target="Z-SN7MBsSyZbgGFgeS7H-60">
          <mxGeometry width="50" height="50" relative="1" as="geometry">
            <mxPoint x="430" y="1332" as="sourcePoint" />
            <mxPoint x="430" y="1195" as="targetPoint" />
            <Array as="points">
              <mxPoint x="460" y="1345" />
              <mxPoint x="480" y="1245" />
              <mxPoint x="450" y="1175" />
            </Array>
          </mxGeometry>
        </mxCell>
      </root>
    </mxGraphModel>
  </diagram>
</mxfile>
